<svg xmlns="http://www.w3.org/2000/svg" xmlns:xlink="http://www.w3.org/1999/xlink" width="500" zoomAndPan="magnify" viewBox="0 0 375 374.999991" height="500" preserveAspectRatio="xMidYMid meet" version="1.2"><defs><clipPath id="cc5dcd9ae8"><path d="M 0 288.824219 L 375 288.824219 L 375 375 L 0 375 Z M 0 288.824219 "/></clipPath></defs><g id="f96832c790"><g clip-rule="nonzero" clip-path="url(#cc5dcd9ae8)"><path style=" stroke:none;fill-rule:nonzero;fill:#ffffff;fill-opacity:1;" d="M 375.035156 288.90625 L 375.035156 392.332031 L 0 392.332031 Z M 375.035156 288.90625 "/></g><g style="fill:#ffffff;fill-opacity:1;"><g transform="translate(222.32689, 329.410571)"><path style="stroke:none" d="M 12.015625 -3.4375 L 9 -2.578125 L -2.03125 -23.765625 L 4.3125 -1.21875 L 1.578125 -0.4375 L -6.375 -28.71875 L -1.96875 -29.96875 L 9.015625 -8.6875 L 7.15625 -32.53125 L 11.5625 -33.765625 L 19.515625 -5.484375 L 16.53125 -4.65625 L 10.140625 -27.390625 Z M 12.015625 -3.4375 "/></g></g><g style="fill:#ffffff;fill-opacity:1;"><g transform="translate(243.454237, 323.466585)"><path style="stroke:none" d="M 7.234375 -19.046875 L 8.03125 -16.21875 L 1.125 -14.28125 L 3.953125 -4.21875 L 12.4375 -6.609375 L 13.25 -3.734375 L 1.609375 -0.453125 L -6.34375 -28.734375 L 5.296875 -32.015625 L 6.109375 -29.140625 L -2.375 -26.75 L 0.328125 -17.109375 Z M 7.234375 -19.046875 "/></g></g><g style="fill:#ffffff;fill-opacity:1;"><g transform="translate(257.99697, 319.375121)"><path style="stroke:none" d="M 5.703125 -1.609375 L -1.4375 -27.015625 L -6.65625 -25.546875 L -7.46875 -28.421875 L 6.0625 -32.21875 L 6.875 -29.34375 L 1.671875 -27.890625 L 8.8125 -2.484375 Z M 5.703125 -1.609375 "/></g></g><g style="fill:#ffffff;fill-opacity:1;"><g transform="translate(272.539702, 315.283656)"><path style="stroke:none" d="M 2.734375 -7.953125 C 3.097656 -6.660156 3.640625 -5.734375 4.359375 -5.171875 C 5.085938 -4.609375 6.023438 -4.488281 7.171875 -4.8125 C 8.304688 -5.132812 9.035156 -5.722656 9.359375 -6.578125 C 9.691406 -7.429688 9.675781 -8.503906 9.3125 -9.796875 L 3.234375 -31.421875 L 6.1875 -32.265625 L 12.21875 -10.8125 C 12.820312 -8.65625 12.796875 -6.78125 12.140625 -5.1875 C 11.484375 -3.59375 10.066406 -2.488281 7.890625 -1.875 C 5.742188 -1.269531 3.96875 -1.472656 2.5625 -2.484375 C 1.164062 -3.503906 0.164062 -5.09375 -0.4375 -7.25 L -6.46875 -28.703125 L -3.34375 -29.578125 Z M 2.734375 -7.953125 "/></g></g><g style="fill:#ffffff;fill-opacity:1;"><g transform="translate(288.173136, 310.885332)"><path style="stroke:none" d="M -0.3125 -30.734375 C 1.875 -31.347656 3.664062 -31.15625 5.0625 -30.15625 C 6.457031 -29.15625 7.457031 -27.578125 8.0625 -25.421875 L 8.78125 -22.875 L 5.796875 -22.03125 L 5.03125 -24.734375 C 4.664062 -26.023438 4.117188 -26.953125 3.390625 -27.515625 C 2.660156 -28.085938 1.71875 -28.207031 0.5625 -27.875 C -0.5625 -27.5625 -1.289062 -26.972656 -1.625 -26.109375 C -1.96875 -25.242188 -1.957031 -24.164062 -1.59375 -22.875 L 2.609375 -7.921875 C 2.972656 -6.628906 3.523438 -5.703125 4.265625 -5.140625 C 5.003906 -4.585938 5.9375 -4.46875 7.0625 -4.78125 C 8.21875 -5.113281 8.957031 -5.707031 9.28125 -6.5625 C 9.613281 -7.414062 9.597656 -8.488281 9.234375 -9.78125 L 8.203125 -13.46875 L 11.1875 -14.3125 L 12.171875 -10.796875 C 12.773438 -8.640625 12.742188 -6.769531 12.078125 -5.1875 C 11.410156 -3.601562 9.984375 -2.503906 7.796875 -1.890625 C 5.640625 -1.285156 3.859375 -1.484375 2.453125 -2.484375 C 1.054688 -3.484375 0.0546875 -5.0625 -0.546875 -7.21875 L -4.65625 -21.84375 C -4.957031 -22.925781 -5.101562 -23.9375 -5.09375 -24.875 C -5.09375 -25.8125 -4.914062 -26.664062 -4.5625 -27.4375 C -4.207031 -28.21875 -3.675781 -28.882812 -2.96875 -29.4375 C -2.269531 -30 -1.382812 -30.429688 -0.3125 -30.734375 Z M -0.3125 -30.734375 "/></g></g><g style="fill:#ffffff;fill-opacity:1;"><g transform="translate(303.523789, 306.566566)"><path style="stroke:none" d="M 1.1875 -14.0625 L 4.765625 -1.34375 L 1.609375 -0.453125 L -6.34375 -28.734375 L -3.1875 -29.625 L 0.390625 -16.890625 L 7.34375 -18.84375 L 3.765625 -31.578125 L 6.90625 -32.46875 L 14.859375 -4.1875 L 11.71875 -3.296875 L 8.140625 -16.015625 Z M 1.1875 -14.0625 "/></g></g><g style="fill:#ffffff;fill-opacity:1;"><g transform="translate(320.005551, 301.929573)"><path style="stroke:none" d="M 7.234375 -19.046875 L 8.03125 -16.21875 L 1.125 -14.28125 L 3.953125 -4.21875 L 12.4375 -6.609375 L 13.25 -3.734375 L 1.609375 -0.453125 L -6.34375 -28.734375 L 5.296875 -32.015625 L 6.109375 -29.140625 L -2.375 -26.75 L 0.328125 -17.109375 Z M 7.234375 -19.046875 "/></g></g><g style="fill:#ffffff;fill-opacity:1;"><g transform="translate(334.548284, 297.838109)"><path style="stroke:none" d="M 4.40625 -1.234375 L 1.578125 -0.4375 L -6.375 -28.71875 L -2.375 -29.84375 L 9.921875 -11.25 L 4.171875 -31.6875 L 6.953125 -32.46875 L 14.90625 -4.1875 L 11.640625 -3.28125 L -2.03125 -24.09375 Z M 4.40625 -1.234375 "/></g></g><g style="fill:#2b2729;fill-opacity:1;"><g transform="translate(305.585039, 333.020728)"><path style="stroke:none" d="M 0.203125 -23.296875 C 1.890625 -23.765625 3.265625 -23.632812 4.328125 -22.90625 C 5.390625 -22.1875 6.15625 -20.992188 6.625 -19.328125 L 9.671875 -8.46875 C 10.140625 -6.800781 10.109375 -5.382812 9.578125 -4.21875 C 9.054688 -3.050781 7.953125 -2.234375 6.265625 -1.765625 L 1.234375 -0.34375 L -4.828125 -21.875 Z M 5.625 -3.9375 C 6.488281 -4.1875 7.054688 -4.628906 7.328125 -5.265625 C 7.597656 -5.910156 7.597656 -6.722656 7.328125 -7.703125 L 4.203125 -18.765625 C 3.929688 -19.765625 3.507812 -20.46875 2.9375 -20.875 C 2.363281 -21.28125 1.640625 -21.359375 0.765625 -21.109375 L -1.828125 -20.375 L 3.015625 -3.203125 Z M 5.625 -3.9375 "/></g></g><g style="fill:#2b2729;fill-opacity:1;"><g transform="translate(317.771539, 329.592168)"><path style="stroke:none" d="M -2.4375 -22.546875 L 3.625 -1.015625 L 1.234375 -0.34375 L -4.828125 -21.875 Z M -2.4375 -22.546875 "/></g></g><g style="fill:#2b2729;fill-opacity:1;"><g transform="translate(322.633827, 328.224208)"><path style="stroke:none" d="M 3.359375 -0.9375 L 1.203125 -0.34375 L -4.859375 -21.875 L -1.828125 -22.71875 L 7.546875 -8.5625 L 3.171875 -24.125 L 5.296875 -24.71875 L 11.359375 -3.1875 L 8.859375 -2.5 L -1.546875 -18.359375 Z M 3.359375 -0.9375 "/></g></g><g style="fill:#2b2729;fill-opacity:1;"><g transform="translate(335.220388, 324.683094)"><path style="stroke:none" d="M 5.515625 -14.5 L 6.125 -12.359375 L 0.859375 -10.875 L 3.015625 -3.203125 L 9.484375 -5.03125 L 10.09375 -2.84375 L 1.234375 -0.34375 L -4.828125 -21.875 L 4.03125 -24.375 L 4.640625 -22.203125 L -1.828125 -20.375 L 0.25 -13.015625 Z M 5.515625 -14.5 "/></g></g><g style="fill:#2b2729;fill-opacity:1;"><g transform="translate(346.299023, 321.566222)"><path style="stroke:none" d="M -0.03125 -23.234375 C 1.675781 -23.710938 3.019531 -23.632812 4 -23 C 4.988281 -22.375 5.707031 -21.265625 6.15625 -19.671875 L 6.640625 -17.90625 C 6.972656 -16.71875 7.023438 -15.691406 6.796875 -14.828125 C 6.578125 -13.972656 6.050781 -13.273438 5.21875 -12.734375 C 6.28125 -12.710938 7.125 -12.378906 7.75 -11.734375 C 8.375 -11.085938 8.851562 -10.175781 9.1875 -9 L 10.125 -5.65625 C 10.257812 -5.175781 10.410156 -4.722656 10.578125 -4.296875 C 10.742188 -3.867188 10.984375 -3.492188 11.296875 -3.171875 L 8.859375 -2.5 C 8.640625 -2.769531 8.445312 -3.070312 8.28125 -3.40625 C 8.113281 -3.738281 7.929688 -4.265625 7.734375 -4.984375 L 6.78125 -8.375 C 6.4375 -9.59375 5.925781 -10.351562 5.25 -10.65625 C 4.570312 -10.96875 3.734375 -10.984375 2.734375 -10.703125 L 1.03125 -10.21875 L 3.625 -1.015625 L 1.234375 -0.34375 L -4.828125 -21.875 Z M 2.21875 -12.90625 C 3.175781 -13.175781 3.863281 -13.585938 4.28125 -14.140625 C 4.707031 -14.691406 4.757812 -15.546875 4.4375 -16.703125 L 3.859375 -18.78125 C 3.578125 -19.769531 3.175781 -20.457031 2.65625 -20.84375 C 2.132812 -21.226562 1.421875 -21.296875 0.515625 -21.046875 L -1.828125 -20.375 L 0.421875 -12.40625 Z M 2.21875 -12.90625 "/></g></g></g></svg>